#!OML:ASF H:\Dans Jumps\Project 1\Capture day 1\Session 1\subject.ASF
:FULLY-SPECIFIED
:DEGREES
221
root 0.623253 17.5543 -14.4803 6.72831 -0.926311 -1.25157
lowerback -1.37686 -0.340013 0.0590045
upperback 3.71911 -0.524917 1.67593
thorax 4.62261 -0.293142 1.66979
lowerneck -13.1674 0.649578 -1.80708
upperneck 31.9687 1.35275 0.235903
head 12.8155 0.405872 0.603758
rclavicle -3.57812e-015 4.77083e-015
rhumerus -21.3968 -9.41929 -84.3711
rradius 25.4947
rwrist 31.1967
rhand -19.7941 -26.4295
rfingers 7.12502
rthumb 6.53856 -56.3086
lclavicle -3.57812e-015 4.77083e-015
lhumerus -19.3141 -8.07967 90.859
lradius 20.5899
lwrist 3.58002
lhand -25.3397 -4.37696
lfingers 7.12502
lthumb 1.18345 25.5995
rfemur -15.6735 -2.62347 19.1863
rtibia 22.6883
rfoot -12.6522 -3.52364
rtoes 9.9711
lfemur -13.6448 6.13406 -17.8955
ltibia 20.3269
lfoot -10.5316 6.56332
ltoes -0.277235
222
root 0.624553 17.548 -14.499 6.81817 -0.947223 -1.27355
lowerback -1.20176 -0.340717 0.0859978
upperback 3.76535 -0.526308 1.69112
thorax 4.57117 -0.293205 1.67104
lowerneck -13.2034 0.66438 -1.78993
upperneck 31.7419 1.38373 0.187053
head 12.7289 0.4175 0.585135
rclavicle -5.46658e-015 0
rhumerus -21.3693 -9.40424 -84.333
rradius 25.5546
rwrist 31.1324
rhand -19.8531 -26.4228
rfingers 7.12502
rthumb 6.48168 -56.3036
lclavicle -5.46658e-015 0
lhumerus -19.3407 -8.00325 90.7942
lradius 20.6734
lwrist 3.69847
lhand -25.3681 -4.39447
lfingers 7.12502
lthumb 1.15609 25.5821
rfemur -15.9952 -2.63716 19.216
rtibia 22.97
rfoot -12.708 -3.49824
rtoes 9.90319
lfemur -14.0255 6.17079 -17.8963
ltibia 20.7287
lfoot -10.6201 6.58888
ltoes -0.360606
223
root 0.625965 17.5411 -14.5188 6.91739 -0.967268 -1.3056
lowerback -1.01971 -0.340508 0.122018
upperback 3.81331 -0.526813 1.71123
thorax 4.51754 -0.292606 1.67239
lowerneck -13.2394 0.678712 -1.77598
upperneck 31.4963 1.41455 0.138015
head 12.635 0.428905 0.566952
rclavicle 1.09332e-015 -6.75868e-015
rhumerus -21.3417 -9.38771 -84.2878
rradius 25.6122
rwrist 31.05
rhand -19.9161 -26.4202
rfingers 7.12502
rthumb 6.42085 -56.3029
lclavicle 1.09332e-015 -6.75868e-015
lhumerus -19.367 -7.93664 90.7334
lradius 20.7579
lwrist 3.84423
lhand -25.4008 -4.40344
lfingers 7.12502
lthumb 1.1245 25.5733
rfemur -16.34 -2.65657 19.2573
rtibia 23.2676
rfoot -12.7689 -3.46646
rtoes 9.83047
lfemur -14.4429 6.20939 -17.8884
ltibia 21.1711
lfoot -10.7193 6.61874
ltoes -0.451691
224
root 0.627559 17.5333 -14.5396 7.027 -0.986672 -1.35196
lowerback -0.833916 -0.339212 0.172851
upperback 3.86373 -0.526365 1.73619
thorax 4.46425 -0.291111 1.67052
lowerneck -13.2743 0.691858 -1.77002
upperneck 31.2315 1.44297 0.0963524
head 12.5334 0.439528 0.552599
rclavicle 9.93923e-016 3.57812e-015
rhumerus -21.3147 -9.37134 -84.2368
rradius 25.668
rwrist 30.9482
rhand -19.969 -26.4277
rfingers 7.12502
rthumb 6.36978 -56.3119
lclavicle 9.93923e-016 3.57812e-015
lhumerus -19.3879 -7.87598 90.6736
lradius 20.839
lwrist 4.00973
lhand -25.4422 -4.41152
lfingers 7.12502
lthumb 1.0845 25.5655
rfemur -16.7086 -2.68184 19.3148
rtibia 23.5805
rfoot -12.8338 -3.42645
rtoes 9.75428
lfemur -14.8984 6.24782 -17.8674
ltibia 21.6554
lfoot -10.8282 6.65597
ltoes -0.557382
